PathFileType	4	(X/Y/Z)	C:\Users\WrightLab\Desktop\Jo\P3_14.trc
DataRate	CameraRate	NumFrames	NumMarkers	Units	OrigDataRate	OrigDataStartFrame	OrigNumFrames
100.00	100.00	       29	19	mm	100.00	589	       672
Frame#	Time	Headset_Front			Headset_Back			Headset_Left			Headset_Right			Left_Shoulder			Right_Shoulder			Sternum			C7			Left Elbow			Right Elbow			Left Wrist			Right Wrist			Left ASIS			Right ASIS			S2			Left Knee			Right Knee			Left Ankle			Right Ankle			
		X1	Y1	Z1	X2	Y2	Z2	X3	Y3	Z3	X4	Y4	Z4	X5	Y5	Z5	X6	Y6	Z6	X7	Y7	Z7	X8	Y8	Z8	X9	Y9	Z9	X10	Y10	Z10	X11	Y11	Z11	X12	Y12	Z12	X13	Y13	Z13	X14	Y14	Z14	X15	Y15	Z15	X16	Y16	Z16	X17	Y17	Z17	X18	Y18	Z18	X19	Y19	Z19	

589	5.880	-91.43660	997.49823	2334.88159										-146.35182	1402.98059	2535.94409										-148.42651	1071.47278	2615.91675				-272.39365	904.44586	2641.33887													-268.99988	502.14597	2570.18164	-312.46341	494.37958	2330.71802	-62.77773	253.52495	2476.47925	-255.88408	159.22910	2347.30518	
590	5.890	-92.62460	998.23590	2340.41553										-151.96872	1403.29419	2540.54370										-156.41615	1072.17908	2620.92798				-281.18463	904.99963	2643.24414													-279.69519	504.17340	2572.09277	-311.84024	494.37909	2330.45483	-74.23253	249.50758	2492.10205	-256.55853	161.01555	2345.31885	
591	5.900	-93.30564	998.45953	2345.69287										-158.20094	1403.80688	2544.81689										-164.30173	1072.43042	2625.61426				-289.99268	905.71796	2644.66577													-290.43240	504.91486	2573.02100	-311.12070	494.61224	2330.41772	-86.40425	245.60713	2507.75781	-256.03128	161.15297	2345.08789	
592	5.910	-93.83347	999.31512	2351.54395										-164.21185	1403.90588	2549.75366										-172.31189	1073.13196	2630.77832				-298.65567	906.98981	2646.46484													-299.94675	506.05020	2573.39063	-310.23761	494.80908	2330.43677	-98.95586	242.25035	2523.59155	-254.61536	159.68427	2346.08081	
593	5.920	-94.32130	1000.07977	2358.04956										-169.91002	1404.06165	2553.56152										-180.23518	1073.45129	2635.46436																			-309.20111	507.66882	2575.22583	-309.26877	494.89951	2330.67700	-111.74297	238.55580	2539.42480	-254.03398	159.87334	2345.55151	
594	5.930	-95.28603	1000.51917	2363.07324										-176.13118	1404.36804	2558.24438										-188.09120	1073.60229	2640.28760																			-318.17276	508.65176	2574.55151	-308.40356	495.03464	2330.85571	-125.44002	234.30429	2553.99341	-253.41861	160.12367	2345.00122	
595	5.940	-96.28919	1000.82019	2369.22437										-182.20589	1404.49121	2562.88867										-195.49347	1073.55200	2644.21289																			-325.78931	510.24158	2574.48633	-307.52585	495.00507	2330.97974	-139.08495	230.48347	2568.13354	-252.93860	160.29538	2344.57471	
596	5.950	-97.52856	1001.55353	2375.82690																						-203.27028	1074.01086	2648.43921																			-334.27856	510.93176	2574.18481	-306.64130	494.93988	2331.11450	-153.72084	227.66638	2582.86304				
597	5.960	-98.18758	1001.72308	2380.78833																						-210.81044	1073.93738	2652.37769																			-341.14716	511.72720	2574.47314	-305.83453	495.10809	2331.50562	-168.06488	224.96687	2596.47339				
598	5.970	-99.13190	1002.63940	2387.42627																						-218.59380	1074.17175	2656.71704																			-348.61072	512.17749	2572.45508	-304.92215	495.24796	2331.86133	-182.71248	223.56305	2609.79761				
599	5.980	-100.41304	1002.94879	2393.55688																						-226.34706	1074.49158	2660.81982																			-354.58218	512.34979	2571.19629	-303.99728	495.10349	2333.53027	-198.29103	220.95816	2620.66260				
600	5.990	-101.98849	1002.71332	2400.06396																						-233.71672	1074.25903	2664.46680																			-361.37695	513.01440	2570.34570	-302.69843	494.29373	2333.69604	-212.86188	219.91504	2633.36987				
601	6.000	-102.59382	1003.12537	2406.60693																						-241.33488	1073.99426	2668.43604																			-368.00101	513.29773	2568.81177	-302.24423	494.59253	2332.89185	-228.19186	219.10966	2643.34595				
602	6.010	-103.84303	1003.62500	2413.44067																																											-373.75299	513.57178	2567.39722	-301.72232	494.91296	2332.10645	-242.12175	217.77197	2653.81079				
603	6.020	-105.80484	1003.70996	2419.70386																																											-378.99045	513.22675	2566.19116	-301.00714	495.04541	2332.53467	-256.86121	217.09456	2661.84814				
604	6.030	-106.89175	1003.13373	2425.44849																																											-384.14383	513.02380	2564.58203	-300.45758	494.43478	2334.95483	-269.95062	217.13022	2670.65430				
605	6.040	-108.06985	1003.79590	2432.51660																																											-388.07010	512.53229	2562.34302	-300.38083	495.08292	2337.76074	-283.25815	216.15063	2677.06299				
606	6.050	-110.08881	1004.12177	2438.92505																																											-391.91882	512.25903	2561.71729	-300.32895	495.36493	2337.67163	-295.06610	214.69362	2682.66553				
607	6.060	-111.67755	1003.84399	2444.88745																																											-395.59027	512.26947	2561.44800	-300.38330	495.51230	2337.73901	-306.28430	213.98907	2687.44312				
608	6.070	-183.60089	971.81543	2526.99072																																											-397.85968	511.50519	2562.33960	-300.59979	495.69650	2338.03052	-316.10620	213.33102	2691.79907				
609	6.080																																														-400.03207	508.97980	2561.98267	-300.71667	495.86209	2338.18408	-324.96521	210.23195	2694.65601				
610	6.090																																														-401.83881	508.68433	2563.85400	-300.80249	496.23236	2338.28174	-333.62234	209.73259	2698.46631				
611	6.100																																														-403.77350	507.79538	2566.29980	-300.96606	496.41757	2338.49902	-340.79666	207.39543	2700.97778				
612	6.110																																														-404.26013	506.82376	2568.84595	-301.17557	496.95547	2340.04224	-346.51736	204.52707	2702.72290				
613	6.120																																														-404.43875	504.93567	2571.62134	-301.55804	497.81171	2339.48706	-351.05164	203.93465	2706.69678				
614	6.130																																														-405.12796	504.27359	2576.03369	-301.51135	497.88336	2339.82031							
615	6.140																																														-405.65408	502.62854	2579.15259	-301.37772	498.04886	2339.92725							
616	6.150																																														-406.20901	501.14737	2583.44702	-300.78766	498.22665	2340.87402							
617	6.160																																														-406.01990	500.37946	2587.79370	-300.20056	498.19141	2342.34668							
